<svg width="77" height="96" viewBox="0 0 77 96" fill="none" xmlns="http://www.w3.org/2000/svg">
<g filter="url(#filter0_b_2_12)">
<rect width="77" height="95.7453" transform="translate(0 0.177734)" fill="black" fill-opacity="0.1"/>
<path d="M30.2652 27.7987C28.3756 34.1983 36.2778 39.8587 40.4652 41.889C49.2441 34.1727 40.8594 19.6431 35.4328 13.4552C35.9235 19.49 32.6272 19.7992 30.2652 27.7987Z" fill="black"/>
<path d="M40.4652 41.889C36.2778 39.8587 28.3756 34.1983 30.2652 27.7987C32.6272 19.7992 35.9235 19.49 35.4328 13.4552C40.8594 19.6431 49.2441 34.1727 40.4652 41.889ZM40.4652 41.889C40.3019 41.3591 40.122 40.7607 39.9316 40.1108C39.802 39.6683 39.6675 39.202 39.5302 38.7171M36.1805 17.2067C36.3341 17.3937 36.8041 18.3988 36.7427 20.8419M38.5655 35.1622L40.479 33.223M38.5655 35.1622C38.5255 35.0078 38.4856 34.8528 38.4459 34.6975M38.5655 35.1622C38.7914 36.0341 39.0214 36.8898 39.2474 37.707M38.4459 34.6975L34.9454 30.7552M38.4459 34.6975C38.318 34.1973 38.192 33.6931 38.0693 33.1892M37.737 31.7871L38.573 28.451M37.737 31.7871C37.5981 31.184 37.4662 30.5868 37.3438 30.0028M37.737 31.7871C37.8441 32.252 37.9553 32.7205 38.0693 33.1892M37.3438 30.0028L35.7099 28.5187M37.3438 30.0028C37.1656 29.1526 37.0078 28.3304 36.8786 27.5587M36.8786 27.5587L38.8637 25.2552M36.8786 27.5587C36.833 27.2864 36.7909 27.0203 36.7528 26.7616M36.5844 25.4136L35.0358 23.5284M36.5844 25.4136C36.6257 25.8342 36.6826 26.2856 36.7528 26.7616M36.5844 25.4136C36.5661 25.2279 36.5508 25.0481 36.5388 24.8749M36.7528 26.7616L34.9368 24.5508M39.2474 37.707L35.2723 33.3809M39.2474 37.707C39.3426 38.0511 39.437 38.3884 39.5302 38.7171M39.5302 38.7171L41.1284 35.5221M38.0693 33.1892L39.9612 31.6352M36.5635 23.1196C36.5592 23.1548 36.5547 23.1901 36.5501 23.2256C36.4939 23.664 36.4935 24.2232 36.5388 24.8749M36.5635 23.1196L38.154 21.8132M36.5635 23.1196C36.613 22.7229 36.6512 22.35 36.6797 21.9998M36.5388 24.8749L37.7405 23.8878M36.7427 20.8419L37.4856 19.4863M36.7427 20.8419C36.7338 21.1969 36.7136 21.5822 36.6797 21.9998M36.6797 21.9998L36.0785 20.0333" stroke="white" stroke-width="0.220821"/>
<path d="M47.7823 28.4565C41.3225 27.8959 38.2657 36.2355 37.5447 40.4753C47.1378 47.1505 58.2866 36.7256 62.5197 30.5733C57.0588 32.142 55.8571 29.1571 47.7823 28.4565Z" fill="black"/>
<path d="M37.5447 40.4753C38.2657 36.2355 41.3225 27.8959 47.7823 28.4565C55.8571 29.1571 57.0588 32.142 62.5197 30.5733C58.2866 36.7256 47.1378 47.1505 37.5447 40.4753ZM37.5447 40.4753C37.9909 40.2266 38.496 39.9499 39.0459 39.6541C39.4203 39.4526 39.8155 39.2423 40.2271 39.0259M59.2477 31.957C59.117 32.1333 58.3151 32.7529 56.0322 33.148M43.2564 37.4783L45.586 38.8856M43.2564 37.4783C43.3886 37.4128 43.5212 37.3473 43.6543 37.282M43.2564 37.4783C42.5105 37.8479 41.7807 38.2185 41.0855 38.5781M43.6543 37.282L46.3392 33.3225M43.6543 37.282C44.0827 37.0715 44.5153 36.862 44.9487 36.6555M46.1569 36.0896L49.483 36.2442M46.1569 36.0896C46.6777 35.8499 47.195 35.6177 47.7026 35.3967M46.1569 36.0896C45.7553 36.2744 45.3517 36.4636 44.9487 36.6555M47.7026 35.3967L48.6256 33.6144M47.7026 35.3967C48.4417 35.0751 49.1605 34.7774 49.8403 34.5155M49.8403 34.5155L52.5277 35.9216M49.8403 34.5155C50.0802 34.423 50.3153 34.335 50.5447 34.252M51.7481 33.8473L53.0669 32.0695M51.7481 33.8473C51.3696 33.9633 50.9667 34.0992 50.5447 34.252M51.7481 33.8473C51.9153 33.7961 52.0778 33.7488 52.2351 33.7056M50.5447 34.252L52.0911 32.1673M41.0855 38.5781L43.9946 34.1097M41.0855 38.5781C40.7928 38.7296 40.5062 38.8791 40.2271 39.0259M40.2271 39.0259L43.634 39.9101M44.9487 36.6555L46.915 38.1141M53.87 33.4039C53.8362 33.4063 53.8022 33.4088 53.768 33.4111C53.3458 33.4402 52.8271 33.5433 52.2351 33.7056M53.87 33.4039L55.5231 34.6301M53.87 33.4039C54.2516 33.3762 54.6081 33.3425 54.9408 33.304M52.2351 33.7056L53.4842 34.6322M56.0322 33.148L57.4957 33.583M56.0322 33.148C55.7005 33.2054 55.3375 33.2581 54.9408 33.304M54.9408 33.304L56.5978 32.3855" stroke="white" stroke-width="0.220821"/>
<path d="M25.1851 35.1929C26.4624 41.5499 35.3249 42.1401 39.5965 41.6405C43.3069 30.5582 30.1692 22.7882 23.0753 20.4545C26.1154 25.2545 23.5884 27.2465 25.1851 35.1929Z" fill="black"/>
<path d="M39.5965 41.6405C35.3249 42.1401 26.4624 41.5499 25.1851 35.1929C23.5884 27.2465 26.1154 25.2545 23.0753 20.4545C30.1692 22.7882 43.3069 30.5582 39.5965 41.6405ZM39.5965 41.6405C39.2324 41.2822 38.8249 40.8752 38.3865 40.4307C38.0879 40.1279 37.775 39.8077 37.4517 39.4736M25.3227 23.2058C25.5287 23.2817 26.3486 23.8771 27.3693 25.957M35.1152 37.0012L35.8111 34.37M35.1152 37.0012C35.0152 36.8928 34.9151 36.7839 34.815 36.6745M35.1152 37.0012C35.6795 37.6132 36.2402 38.2095 36.7808 38.7756M34.815 36.6745L30.2605 35.2105M34.815 36.6745C34.4926 36.3225 34.1699 35.9662 33.85 35.6083M32.9674 34.6079L32.1811 31.3723M32.9674 34.6079C32.591 34.1754 32.2228 33.7442 31.8681 33.3191M32.9674 34.6079C33.2575 34.9413 33.5526 35.2755 33.85 35.6083M31.8681 33.3191L29.8982 32.9342M31.8681 33.3191C31.3517 32.7002 30.8641 32.094 30.4216 31.5152M30.4216 31.5152L31.0159 28.5409M30.4216 31.5152C30.2655 31.3109 30.115 31.11 29.9708 30.9132M29.2443 29.872L27.1675 29.106M29.2443 29.872C29.4619 30.2027 29.7056 30.5511 29.9708 30.9132M29.2443 29.872C29.1481 29.7259 29.0571 29.5833 28.9715 29.4444M29.9708 30.9132L27.5355 30.0149M36.7808 38.7756L31.6749 37.2393M36.7808 38.7756C37.0084 39.0139 37.2324 39.247 37.4517 39.4736M37.4517 39.4736L37.3429 35.9555M33.85 35.6083L34.6973 33.3113M28.2225 27.9603C28.2343 27.992 28.2462 28.024 28.2581 28.0561C28.4047 28.4531 28.6494 28.9219 28.9715 29.4444M28.2225 27.9603L28.9348 26.0292M28.2225 27.9603C28.0886 27.6018 27.9561 27.2691 27.8257 26.9606M28.9715 29.4444L29.5097 27.9854M27.3693 25.957L27.3756 24.4303M27.3693 25.957C27.5176 26.2592 27.6702 26.5928 27.8257 26.9606M27.8257 26.9606L26.4786 25.6285" stroke="white" stroke-width="0.220821"/>
<path d="M41.9838 25.0131C35.9016 27.2603 36.6921 36.1071 37.8477 40.2497C49.3711 42.1977 55.0111 28.0145 56.2171 20.6446C51.9463 24.3919 49.5867 22.2042 41.9838 25.0131Z" fill="black"/>
<path d="M37.8477 40.2497C36.6921 36.1071 35.9016 27.2603 41.9839 25.0131C49.5867 22.2042 51.9463 24.3919 56.2171 20.6446C55.0111 28.0145 49.3711 42.1977 37.8477 40.2497ZM37.8477 40.2497C38.1453 39.8345 38.4841 39.3689 38.8554 38.8668C39.1082 38.5249 39.376 38.1662 39.656 37.795M53.8474 23.2912C53.8043 23.5065 53.3432 24.4088 51.4466 25.7395M41.7364 35.1035L44.4437 35.3833M41.7364 35.1035C41.828 34.9879 41.9201 34.8721 42.0126 34.7563M41.7364 35.1035C41.2193 35.7559 40.7171 36.4022 40.2416 37.024M42.0126 34.7563L42.7531 30.03M42.0126 34.7563C42.3104 34.3832 42.6124 34.0092 42.9164 33.6378M43.7679 32.6107L46.8425 31.3325M43.7679 32.6107C44.1369 32.1718 44.5057 31.7412 44.8708 31.325M43.7679 32.6107C43.4835 32.949 43.1991 33.2923 42.9164 33.6378M44.8708 31.325L44.9457 29.3192M44.8708 31.325C45.4022 30.7189 45.9254 30.1432 46.4287 29.6164M46.4287 29.6164L49.4591 29.7425M46.4287 29.6164C46.6063 29.4305 46.7814 29.2506 46.9535 29.0777M47.8695 28.1986L48.3044 26.0282M47.8695 28.1986C47.5765 28.4649 47.2701 28.7596 46.9535 29.0777M47.8695 28.1986C47.999 28.081 48.1258 27.9689 48.2497 27.8628M46.9535 29.0777L47.4635 26.5327M40.2416 37.024L40.968 31.7417M40.2416 37.024C40.0414 37.2858 39.8459 37.5432 39.656 37.795M39.656 37.795L43.1147 37.1423M42.9164 33.6378L45.3169 34.1188M49.5998 26.8928C49.5703 26.9095 49.5406 26.9261 49.5106 26.9429C49.1412 27.1492 48.7159 27.4636 48.2497 27.8628M49.5998 26.8928L51.618 27.2972M49.5998 26.8928C49.9332 26.705 50.2413 26.5226 50.5259 26.3459M48.2497 27.8628L49.7745 28.1684M51.4466 25.7395L52.9559 25.5091M51.4466 25.7395C51.171 25.9329 50.8652 26.1353 50.5259 26.3459M50.5259 26.3459L51.6331 24.8086" stroke="white" stroke-width="0.220821"/>
<path d="M23.5103 41.7256C27.376 46.9313 35.6443 43.6866 39.2952 41.4135C37.9265 29.807 22.7299 28.3798 15.3181 29.2934C20.1145 32.3392 18.6781 35.2184 23.5103 41.7256Z" fill="black"/>
<path d="M39.2952 41.4135C35.6443 43.6866 27.376 46.9313 23.5103 41.7256C18.6781 35.2184 20.1145 32.3392 15.3181 29.2934C22.7299 28.3798 37.9265 29.807 39.2952 41.4135ZM39.2952 41.4135C38.8131 41.2446 38.271 41.0502 37.6849 40.835C37.2857 40.6884 36.8662 40.5322 36.4312 40.3678M18.524 30.8239C18.7427 30.8048 19.7383 30.9938 21.5483 32.44M33.2636 39.1275L32.7713 36.4508M33.2636 39.1275C33.1269 39.0721 32.99 39.0163 32.8528 38.9601M33.2636 39.1275C34.035 39.4405 34.7964 39.7408 35.5267 40.0224M32.8528 38.9601L28.1088 39.5776M32.8528 38.9601C32.4111 38.7791 31.9673 38.5944 31.5254 38.407M30.3004 37.8784L28.2097 35.2869M30.3004 37.8784C29.7755 37.6477 29.2586 37.4146 28.7565 37.1813M30.3004 37.8784C30.705 38.0563 31.1144 38.2328 31.5254 38.407M28.7565 37.1813L26.8106 37.673M28.7565 37.1813C28.0256 36.8416 27.3261 36.5012 26.679 36.1663M26.679 36.1663L25.9485 33.2225M26.679 36.1663C26.4507 36.048 26.2289 35.9305 26.0146 35.8139M24.9135 35.1819L22.7084 35.3744M24.9135 35.1819C25.2514 35.3883 25.6203 35.5995 26.0146 35.8139M24.9135 35.1819C24.7642 35.0907 24.621 35.0005 24.4844 34.9114M26.0146 35.8139L23.4288 36.0397M35.5267 40.0224L30.2532 40.8097M35.5267 40.0224C35.8343 40.141 36.1363 40.2563 36.4312 40.3678M36.4312 40.3678L34.8329 37.2319M31.5254 38.407L31.3124 35.968M23.1741 33.8883C23.1984 33.9119 23.2227 33.9358 23.2472 33.9598C23.5491 34.2564 23.9703 34.5761 24.4844 34.9114M23.1741 33.8883L22.9951 31.8378M23.1741 33.8883C22.9002 33.621 22.6385 33.3767 22.389 33.1532M24.4844 34.9114L24.3492 33.3622M21.5483 32.44L20.903 31.0563M21.5483 32.44C21.8113 32.6501 22.0915 32.8868 22.389 33.1532M22.389 33.1532L20.6025 32.5225" stroke="white" stroke-width="0.220821"/>
<path d="M20.9214 66.0549C19.9214 66.0549 19.1454 65.8349 18.5934 65.3949C18.0414 64.9549 17.7654 64.2389 17.7654 63.2469V58.9989C17.7654 58.5989 17.7374 58.3149 17.6814 58.1469C17.6254 57.9789 17.5214 57.8709 17.3694 57.8229C17.2254 57.7669 17.0134 57.7229 16.7334 57.6909L16.4934 57.6669V57.3669L18.2694 57.4029H18.2814L20.0574 57.3669V57.6669L19.8174 57.6909C19.5454 57.7229 19.3334 57.7669 19.1814 57.8229C19.0294 57.8709 18.9254 57.9789 18.8694 58.1469C18.8134 58.3149 18.7854 58.5989 18.7854 58.9989V63.2469C18.7854 64.0549 19.0054 64.6589 19.4454 65.0589C19.8854 65.4589 20.4534 65.6589 21.1494 65.6589C21.9574 65.6589 22.5414 65.4389 22.9014 64.9989C23.2614 64.5509 23.4414 63.9429 23.4414 63.1749V58.9989C23.4414 58.5989 23.4134 58.3149 23.3574 58.1469C23.3014 57.9789 23.1974 57.8709 23.0454 57.8229C22.9014 57.7669 22.6894 57.7229 22.4094 57.6909L22.1694 57.6669V57.3669L23.9454 57.3909L25.1334 57.3669V57.6669L24.8934 57.6909C24.6214 57.7229 24.4094 57.7669 24.2574 57.8229C24.1054 57.8709 24.0014 57.9789 23.9454 58.1469C23.8894 58.3149 23.8614 58.5989 23.8614 58.9989V63.1749C23.8614 64.1029 23.6174 64.8149 23.1294 65.3109C22.6414 65.8069 21.9054 66.0549 20.9214 66.0549ZM25.0734 65.9589V65.6589L25.3254 65.6229C25.4854 65.5989 25.6454 65.5589 25.8054 65.5029C25.9734 65.4469 26.1534 65.3389 26.3454 65.1789C26.5454 65.0109 26.7694 64.7549 27.0174 64.4109L28.9614 61.7469L26.9934 58.7949C26.8094 58.5149 26.6414 58.3069 26.4894 58.1709C26.3374 58.0269 26.1814 57.9269 26.0214 57.8709C25.8694 57.8069 25.6894 57.7549 25.4814 57.7149L25.2414 57.6669V57.3669L27.2214 57.4029L29.0814 57.3669V57.6669L28.5774 57.7269C28.1614 57.7749 27.9534 57.9189 27.9534 58.1589C27.9534 58.3589 28.0734 58.6389 28.3134 58.9989L29.6574 61.0149L31.3014 58.7229C31.4454 58.5149 31.5174 58.3309 31.5174 58.1709C31.5174 57.9149 31.3414 57.7629 30.9894 57.7149L30.5934 57.6669V57.3669L32.1774 57.4029L33.5694 57.3669V57.6669L33.3174 57.6909C33.0934 57.7149 32.8414 57.8149 32.5614 57.9909C32.2814 58.1669 31.9814 58.4789 31.6614 58.9269L29.8974 61.3629L31.9854 64.4949C32.2414 64.8709 32.4854 65.1389 32.7174 65.2989C32.9494 65.4589 33.1894 65.5589 33.4374 65.5989L33.7974 65.6589V65.9589L32.0094 65.9229L29.9574 65.9589V65.6589L30.4494 65.6109C30.8254 65.5789 31.0134 65.4269 31.0134 65.1549C31.0134 64.9549 30.9094 64.6949 30.7014 64.3749L29.1894 62.0949L27.3774 64.6149C27.3054 64.7189 27.2534 64.8189 27.2214 64.9149C27.1974 65.0109 27.1854 65.0989 27.1854 65.1789C27.1854 65.4429 27.3214 65.5869 27.5934 65.6109L28.0494 65.6589V65.9589L26.5614 65.9229L25.0734 65.9589ZM34.0977 65.9589V65.6589L34.3377 65.6349C34.6177 65.6029 34.8297 65.5629 34.9737 65.5149C35.1257 65.4589 35.2297 65.3469 35.2857 65.1789C35.3417 65.0029 35.3697 64.7189 35.3697 64.3269V58.9989C35.3697 58.5989 35.3417 58.3149 35.2857 58.1469C35.2297 57.9789 35.1257 57.8709 34.9737 57.8229C34.8297 57.7669 34.6177 57.7229 34.3377 57.6909L34.0977 57.6669V57.3669L35.8737 57.4029H36.5457L39.4017 64.3269L42.5577 57.4029H43.2777L44.9577 57.3669V57.6669L44.7177 57.6909C44.4457 57.7229 44.2337 57.7669 44.0817 57.8229C43.9297 57.8709 43.8257 57.9789 43.7697 58.1469C43.7137 58.3149 43.6857 58.5989 43.6857 58.9989V64.3269C43.6857 64.7189 43.7137 65.0029 43.7697 65.1789C43.8257 65.3549 43.9297 65.4669 44.0817 65.5149C44.2337 65.5629 44.4457 65.6029 44.7177 65.6349L44.9577 65.6589V65.9589L43.1817 65.9229L41.3937 65.9589V65.6589L41.6337 65.6349C41.9137 65.6029 42.1257 65.5629 42.2697 65.5149C42.4217 65.4669 42.5257 65.3549 42.5817 65.1789C42.6377 65.0029 42.6657 64.7189 42.6657 64.3269V58.1589L39.1137 65.9229H38.8857L35.7897 58.2789V64.6629C35.7897 64.9189 35.8217 65.1109 35.8857 65.2389C35.9497 65.3669 36.0537 65.4589 36.1977 65.5149C36.3497 65.5629 36.5577 65.6029 36.8217 65.6349L37.0617 65.6589V65.9589L35.5377 65.9229L34.0977 65.9589ZM50.1234 66.0549C49.3074 66.0549 48.6034 65.8669 48.0114 65.4909C47.4274 65.1149 46.9754 64.5989 46.6554 63.9429C46.3434 63.2789 46.1874 62.5189 46.1874 61.6629C46.1874 61.0229 46.2914 60.4349 46.4994 59.8989C46.7074 59.3629 46.9954 58.8949 47.3634 58.4949C47.7314 58.0949 48.1554 57.7869 48.6354 57.5709C49.1234 57.3469 49.6434 57.2349 50.1954 57.2349C50.6834 57.2349 51.0834 57.2909 51.3954 57.4029C51.7154 57.5069 51.9554 57.5989 52.1154 57.6789C52.2194 57.7269 52.3154 57.7709 52.4034 57.8109C52.4914 57.8429 52.5514 57.8589 52.5834 57.8589C52.6714 57.8589 52.7434 57.8269 52.7994 57.7629C52.8554 57.6909 52.8914 57.5709 52.9074 57.4029H53.2074L53.1834 58.8069L53.2074 60.2109H52.9074C52.7874 59.3789 52.4994 58.7349 52.0434 58.2789C51.5874 57.8229 50.9834 57.5949 50.2314 57.5949C49.7034 57.5949 49.2594 57.7029 48.8994 57.9189C48.5394 58.1269 48.2514 58.4189 48.0354 58.7949C47.8194 59.1629 47.6594 59.5949 47.5554 60.0909C47.4594 60.5789 47.4114 61.1029 47.4114 61.6629C47.4114 62.5029 47.4994 63.2229 47.6754 63.8229C47.8594 64.4229 48.1554 64.8869 48.5634 65.2149C48.9794 65.5349 49.5354 65.6949 50.2314 65.6949C50.7514 65.6949 51.2034 65.5749 51.5874 65.3349C51.9714 65.0949 52.2794 64.7749 52.5114 64.3749C52.7514 63.9749 52.8954 63.5349 52.9434 63.0549H53.2314L53.2074 64.5189L53.2434 65.9229H52.9554L52.9194 65.7909C52.8874 65.6869 52.8474 65.5909 52.7994 65.5029C52.7594 65.4069 52.6874 65.3589 52.5834 65.3589C52.5274 65.3589 52.4594 65.3749 52.3794 65.4069C52.3074 65.4389 52.2234 65.4789 52.1274 65.5269C51.9194 65.6309 51.6474 65.7469 51.3114 65.8749C50.9754 65.9949 50.5794 66.0549 50.1234 66.0549ZM57.7881 66.0549C57.4681 66.0549 57.1761 66.0029 56.9121 65.8989C56.6561 65.7949 56.4241 65.6909 56.2161 65.5869C56.0401 65.4909 55.8921 65.4189 55.7721 65.3709C55.6601 65.3229 55.5601 65.2989 55.4721 65.2989C55.3601 65.2989 55.2801 65.3469 55.2321 65.4429C55.1921 65.5309 55.1601 65.6309 55.1361 65.7429L55.1001 65.9229H54.8001L54.8601 64.5069L54.8241 62.9589H55.1241L55.2561 63.5229C55.3441 63.8749 55.5001 64.2189 55.7241 64.5549C55.9561 64.8909 56.2441 65.1669 56.5881 65.3829C56.9401 65.5989 57.3401 65.7069 57.7881 65.7069C58.0361 65.7069 58.2721 65.6549 58.4961 65.5509C58.7281 65.4389 58.9161 65.2709 59.0601 65.0469C59.2121 64.8229 59.2881 64.5309 59.2881 64.1709C59.2881 63.6349 59.1121 63.2029 58.7601 62.8749C58.4161 62.5469 57.9361 62.2349 57.3201 61.9389L56.8161 61.6989C56.2161 61.4109 55.7681 61.0949 55.4721 60.7509C55.1841 60.3989 55.0401 59.9509 55.0401 59.4069C55.0401 58.9829 55.1441 58.6069 55.3521 58.2789C55.5601 57.9509 55.8441 57.6949 56.2041 57.5109C56.5721 57.3269 56.9921 57.2349 57.4641 57.2349C57.7921 57.2349 58.0681 57.2789 58.2921 57.3669C58.5161 57.4549 58.6921 57.5309 58.8201 57.5949C59.0281 57.6989 59.1921 57.7509 59.3121 57.7509C59.4401 57.7509 59.5161 57.6269 59.5401 57.3789H59.8401L59.8041 58.5309L59.8281 59.6949H59.5281C59.4801 59.2469 59.3561 58.8669 59.1561 58.5549C58.9561 58.2349 58.7121 57.9909 58.4241 57.8229C58.1441 57.6549 57.8441 57.5709 57.5241 57.5709C57.0521 57.5709 56.6681 57.7069 56.3721 57.9789C56.0841 58.2509 55.9401 58.5989 55.9401 59.0229C55.9401 59.4789 56.0881 59.8389 56.3841 60.1029C56.6801 60.3589 57.0641 60.6029 57.5361 60.8349L58.0281 61.0749C58.4681 61.2909 58.8441 61.5149 59.1561 61.7469C59.4761 61.9709 59.7201 62.2349 59.8881 62.5389C60.0641 62.8429 60.1521 63.2229 60.1521 63.6789C60.1521 64.1509 60.0441 64.5669 59.8281 64.9269C59.6201 65.2869 59.3361 65.5669 58.9761 65.7669C58.6241 65.9589 58.2281 66.0549 57.7881 66.0549Z" fill="white"/>
<path d="M10.8946 81.9591V81.6591L11.1346 81.6351C11.4146 81.6031 11.6266 81.5631 11.7706 81.5151C11.9226 81.4591 12.0266 81.3471 12.0826 81.1791C12.1386 81.0031 12.1666 80.7191 12.1666 80.3271V74.9991C12.1666 74.5991 12.1386 74.3151 12.0826 74.1471C12.0266 73.9791 11.9226 73.8711 11.7706 73.8231C11.6266 73.7671 11.4146 73.7231 11.1346 73.6911L10.8946 73.6671V73.3671L12.6706 73.4031H13.3426L16.1986 80.3271L19.3546 73.4031H20.0746L21.7546 73.3671V73.6671L21.5146 73.6911C21.2426 73.7231 21.0306 73.7671 20.8786 73.8231C20.7266 73.8711 20.6226 73.9791 20.5666 74.1471C20.5106 74.3151 20.4826 74.5991 20.4826 74.9991V80.3271C20.4826 80.7191 20.5106 81.0031 20.5666 81.1791C20.6226 81.3551 20.7266 81.4671 20.8786 81.5151C21.0306 81.5631 21.2426 81.6031 21.5146 81.6351L21.7546 81.6591V81.9591L19.9786 81.9231L18.1906 81.9591V81.6591L18.4306 81.6351C18.7106 81.6031 18.9226 81.5631 19.0666 81.5151C19.2186 81.4671 19.3226 81.3551 19.3786 81.1791C19.4346 81.0031 19.4626 80.7191 19.4626 80.3271V74.1591L15.9106 81.9231H15.6826L12.5866 74.2791V80.6631C12.5866 80.9191 12.6186 81.1111 12.6826 81.2391C12.7466 81.3671 12.8506 81.4591 12.9946 81.5151C13.1466 81.5631 13.3546 81.6031 13.6186 81.6351L13.8586 81.6591V81.9591L12.3346 81.9231L10.8946 81.9591ZM26.9682 82.0551C25.9682 82.0551 25.1922 81.8351 24.6402 81.3951C24.0882 80.9551 23.8122 80.2391 23.8122 79.2471V74.9991C23.8122 74.5991 23.7842 74.3151 23.7282 74.1471C23.6722 73.9791 23.5682 73.8711 23.4162 73.8231C23.2722 73.7671 23.0602 73.7231 22.7802 73.6911L22.5402 73.6671V73.3671L24.3162 73.4031H24.3282L26.1042 73.3671V73.6671L25.8642 73.6911C25.5922 73.7231 25.3802 73.7671 25.2282 73.8231C25.0762 73.8711 24.9722 73.9791 24.9162 74.1471C24.8602 74.3151 24.8322 74.5991 24.8322 74.9991V79.2471C24.8322 80.0551 25.0522 80.6591 25.4922 81.0591C25.9322 81.4591 26.5002 81.6591 27.1962 81.6591C28.0042 81.6591 28.5882 81.4391 28.9482 80.9991C29.3082 80.5511 29.4882 79.9431 29.4882 79.1751V74.9991C29.4882 74.5991 29.4602 74.3151 29.4042 74.1471C29.3482 73.9791 29.2442 73.8711 29.0922 73.8231C28.9482 73.7671 28.7362 73.7231 28.4562 73.6911L28.2162 73.6671V73.3671L29.9922 73.3911L31.1802 73.3671V73.6671L30.9402 73.6911C30.6682 73.7231 30.4562 73.7671 30.3042 73.8231C30.1522 73.8711 30.0482 73.9791 29.9922 74.1471C29.9362 74.3151 29.9082 74.5991 29.9082 74.9991V79.1751C29.9082 80.1031 29.6642 80.8151 29.1762 81.3111C28.6882 81.8071 27.9522 82.0551 26.9682 82.0551ZM34.9482 82.0551C34.6282 82.0551 34.3362 82.0031 34.0722 81.8991C33.8162 81.7951 33.5842 81.6911 33.3762 81.5871C33.2002 81.4911 33.0522 81.4191 32.9322 81.3711C32.8202 81.3231 32.7202 81.2991 32.6322 81.2991C32.5202 81.2991 32.4402 81.3471 32.3922 81.4431C32.3522 81.5311 32.3202 81.6311 32.2962 81.7431L32.2602 81.9231H31.9602L32.0202 80.5071L31.9842 78.9591H32.2842L32.4162 79.5231C32.5042 79.8751 32.6602 80.2191 32.8842 80.5551C33.1162 80.8911 33.4042 81.1671 33.7482 81.3831C34.1002 81.5991 34.5002 81.7071 34.9482 81.7071C35.1962 81.7071 35.4322 81.6551 35.6562 81.5511C35.8882 81.4391 36.0762 81.2711 36.2202 81.0471C36.3722 80.8231 36.4482 80.5311 36.4482 80.1711C36.4482 79.6351 36.2722 79.2031 35.9202 78.8751C35.5762 78.5471 35.0962 78.2351 34.4802 77.9391L33.9762 77.6991C33.3762 77.4111 32.9282 77.0951 32.6322 76.7511C32.3442 76.3991 32.2002 75.9511 32.2002 75.4071C32.2002 74.9831 32.3042 74.6071 32.5122 74.2791C32.7202 73.9511 33.0042 73.6951 33.3642 73.5111C33.7322 73.3271 34.1522 73.2351 34.6242 73.2351C34.9522 73.2351 35.2282 73.2791 35.4522 73.3671C35.6762 73.4551 35.8522 73.5311 35.9802 73.5951C36.1882 73.6991 36.3522 73.7511 36.4722 73.7511C36.6002 73.7511 36.6762 73.6271 36.7002 73.3791H37.0002L36.9642 74.5311L36.9882 75.6951H36.6882C36.6402 75.2471 36.5162 74.8671 36.3162 74.5551C36.1162 74.2351 35.8722 73.9911 35.5842 73.8231C35.3042 73.6551 35.0042 73.5711 34.6842 73.5711C34.2122 73.5711 33.8282 73.7071 33.5322 73.9791C33.2442 74.2511 33.1002 74.5991 33.1002 75.0231C33.1002 75.4791 33.2482 75.8391 33.5442 76.1031C33.8402 76.3591 34.2242 76.6031 34.6962 76.8351L35.1882 77.0751C35.6282 77.2911 36.0042 77.5151 36.3162 77.7471C36.6362 77.9711 36.8802 78.2351 37.0482 78.5391C37.2242 78.8431 37.3122 79.2231 37.3122 79.6791C37.3122 80.1511 37.2042 80.5671 36.9882 80.9271C36.7802 81.2871 36.4962 81.5671 36.1362 81.7671C35.7842 81.9591 35.3882 82.0551 34.9482 82.0551ZM38.4468 81.9591V81.6591L38.6868 81.6351C38.9668 81.6031 39.1788 81.5631 39.3228 81.5151C39.4748 81.4591 39.5788 81.3471 39.6348 81.1791C39.6908 81.0031 39.7188 80.7191 39.7188 80.3271V74.9991C39.7188 74.5991 39.6908 74.3151 39.6348 74.1471C39.5788 73.9791 39.4748 73.8711 39.3228 73.8231C39.1788 73.7671 38.9668 73.7231 38.6868 73.6911L38.4468 73.6671V73.3671L40.2228 73.4031H44.8788L44.9028 74.2671L44.9988 75.3711H44.7108C44.6548 75.0111 44.5788 74.7231 44.4828 74.5071C44.3948 74.2911 44.2668 74.1311 44.0988 74.0271C43.9308 73.9151 43.7028 73.8431 43.4148 73.8111C43.1348 73.7711 42.7708 73.7511 42.3228 73.7511H40.7388V77.2671H42.0828C42.2428 77.2671 42.3828 77.2311 42.5028 77.1591C42.6228 77.0791 42.7188 76.9351 42.7908 76.7271C42.8708 76.5191 42.9188 76.2191 42.9348 75.8271H43.2348L43.1988 77.4351L43.2348 79.2111H42.9348C42.9348 78.6271 42.8628 78.2151 42.7188 77.9751C42.5748 77.7271 42.3628 77.6031 42.0828 77.6031H40.7388V80.6391C40.7388 81.0231 40.8228 81.2791 40.9908 81.4071C41.1588 81.5271 41.4708 81.5871 41.9268 81.5871H43.0428C43.5068 81.5871 43.8668 81.5351 44.1228 81.4311C44.3868 81.3271 44.5828 81.1191 44.7108 80.8071C44.8388 80.4871 44.9268 80.0191 44.9748 79.4031H45.2748L45.1908 80.8431L45.1548 81.9231H40.2228L38.4468 81.9591ZM50.4878 82.0551C49.4878 82.0551 48.7118 81.8351 48.1598 81.3951C47.6078 80.9551 47.3318 80.2391 47.3318 79.2471V74.9991C47.3318 74.5991 47.3038 74.3151 47.2478 74.1471C47.1918 73.9791 47.0878 73.8711 46.9358 73.8231C46.7918 73.7671 46.5798 73.7231 46.2998 73.6911L46.0598 73.6671V73.3671L47.8358 73.4031H47.8478L49.6238 73.3671V73.6671L49.3838 73.6911C49.1118 73.7231 48.8998 73.7671 48.7478 73.8231C48.5958 73.8711 48.4918 73.9791 48.4358 74.1471C48.3798 74.3151 48.3518 74.5991 48.3518 74.9991V79.2471C48.3518 80.0551 48.5718 80.6591 49.0118 81.0591C49.4518 81.4591 50.0198 81.6591 50.7158 81.6591C51.5238 81.6591 52.1078 81.4391 52.4678 80.9991C52.8278 80.5511 53.0078 79.9431 53.0078 79.1751V74.9991C53.0078 74.5991 52.9798 74.3151 52.9238 74.1471C52.8678 73.9791 52.7638 73.8711 52.6118 73.8231C52.4678 73.7671 52.2558 73.7231 51.9758 73.6911L51.7358 73.6671V73.3671L53.5118 73.3911L54.6998 73.3671V73.6671L54.4598 73.6911C54.1878 73.7231 53.9758 73.7671 53.8238 73.8231C53.6718 73.8711 53.5678 73.9791 53.5118 74.1471C53.4558 74.3151 53.4278 74.5991 53.4278 74.9991V79.1751C53.4278 80.1031 53.1838 80.8151 52.6958 81.3111C52.2078 81.8071 51.4718 82.0551 50.4878 82.0551ZM55.1798 81.9591V81.6591L55.4198 81.6351C55.6998 81.6031 55.9118 81.5631 56.0558 81.5151C56.2078 81.4591 56.3118 81.3471 56.3678 81.1791C56.4238 81.0031 56.4518 80.7191 56.4518 80.3271V74.9991C56.4518 74.5991 56.4238 74.3151 56.3678 74.1471C56.3118 73.9791 56.2078 73.8711 56.0558 73.8231C55.9118 73.7671 55.6998 73.7231 55.4198 73.6911L55.1798 73.6671V73.3671L56.9558 73.4031H57.6278L60.4838 80.3271L63.6398 73.4031H64.3598L66.0398 73.3671V73.6671L65.7998 73.6911C65.5278 73.7231 65.3158 73.7671 65.1638 73.8231C65.0118 73.8711 64.9078 73.9791 64.8518 74.1471C64.7958 74.3151 64.7678 74.5991 64.7678 74.9991V80.3271C64.7678 80.7191 64.7958 81.0031 64.8518 81.1791C64.9078 81.3551 65.0118 81.4671 65.1638 81.5151C65.3158 81.5631 65.5278 81.6031 65.7998 81.6351L66.0398 81.6591V81.9591L64.2638 81.9231L62.4758 81.9591V81.6591L62.7158 81.6351C62.9958 81.6031 63.2078 81.5631 63.3518 81.5151C63.5038 81.4671 63.6078 81.3551 63.6638 81.1791C63.7198 81.0031 63.7478 80.7191 63.7478 80.3271V74.1591L60.1958 81.9231H59.9678L56.8718 74.2791V80.6631C56.8718 80.9191 56.9038 81.1111 56.9678 81.2391C57.0318 81.3671 57.1358 81.4591 57.2798 81.5151C57.4318 81.5631 57.6398 81.6031 57.9038 81.6351L58.1438 81.6591V81.9591L56.6198 81.9231L55.1798 81.9591Z" fill="white"/>
</g>
<defs>
<filter id="filter0_b_2_12" x="-10" y="-9.82227" width="97" height="115.745" filterUnits="userSpaceOnUse" color-interpolation-filters="sRGB">
<feFlood flood-opacity="0" result="BackgroundImageFix"/>
<feGaussianBlur in="BackgroundImage" stdDeviation="5"/>
<feComposite in2="SourceAlpha" operator="in" result="effect1_backgroundBlur_2_12"/>
<feBlend mode="normal" in="SourceGraphic" in2="effect1_backgroundBlur_2_12" result="shape"/>
</filter>
</defs>
</svg>
